<svg width="580" height="512" viewBox="0 0 580 512" fill="none" xmlns="http://www.w3.org/2000/svg">
<path d="M125.72 35.03C192.216 84.951 263.74 186.17 290 240.49C316.262 186.174 387.782 84.95 454.28 35.03C502.26 -0.991005 580 -28.862 580 59.825C580 77.537 569.845 208.615 563.889 229.895C543.186 303.879 467.745 322.749 400.639 311.328C517.939 331.292 547.779 397.42 483.336 463.548C360.946 589.138 307.426 432.037 293.706 391.782C291.192 384.402 290.016 380.95 289.998 383.886C289.981 380.95 288.805 384.402 286.291 391.782C272.577 432.037 219.058 589.142 96.6606 463.548C32.2166 397.42 62.0556 331.288 179.358 311.328C112.25 322.749 36.8076 303.879 16.1076 229.895C10.1514 208.613 -0.00341797 77.535 -0.00341797 59.825C-0.00341797 -28.862 77.7386 -0.991005 125.717 35.03H125.72Z" fill="black"/>
</svg>
